# File created by Blade
# Date/Time:  Wed Jan 21 16:02:01 2015
# Frame Rate: 120.000 fps
#------------------------------------------------------
:FULLY-SPECIFIED
:DEGREES
287
root 19.508717 32.560886 -17.652304 -174.536688 5.166693 -178.154287
Spine -11.070633 1.275022 7.933732
Head 44.749680 7.568389 -8.186141
LeftShoulder -21.401032 -20.932910 -4.547720
LeftArm -21.507307 10.657344 -69.738060
LeftForeArm 1.843263 -0.000000 6.978154
LeftHand -0.884391 -0.000000 0.417239
LeftHandThumb1 -26.253704 0.000000 33.147579
RightShoulder -13.491172 -18.069526 3.744494
RightArm 11.954881 -13.144466 66.524525
RightForeArm -27.775866 -0.000000 13.265063
RightHand -1.395679 -0.000000 -0.328128
RightHandThumb1 -24.326973 -0.000000 -32.862282
LeftUpLeg 14.728983 3.594811 -18.031961
LeftLeg -1.958383 -0.000000 0.000000
LeftFoot -35.094424 22.655801 -13.077109
LeftToeBase 18.715699 -0.000000 -0.000000
RightUpLeg -15.944350 10.692904 22.520571
RightLeg -2.812417 -0.000000 0.000000
RightFoot -0.847646 -30.730537 -4.047306
RightToeBase 22.284892 -0.000000 -0.000000
288
root 19.508420 32.561314 -17.646219 -174.558593 5.114457 -178.200441
Spine -11.181139 1.338691 7.908494
Head 44.657419 7.597249 -8.398190
LeftShoulder -21.506205 -20.957973 -4.614948
LeftArm -21.504967 10.806464 -69.785061
LeftForeArm 1.712661 -0.000000 7.046188
LeftHand -0.911375 -0.000000 0.398295
LeftHandThumb1 -26.253704 0.000000 33.147579
RightShoulder -13.411821 -18.040720 3.619974
RightArm 11.819392 -13.416867 66.722740
RightForeArm -27.788530 -0.000000 13.067998
RightHand -1.383465 -0.000000 -0.004795
RightHandThumb1 -24.326973 -0.000000 -32.862282
LeftUpLeg 14.761218 3.613822 -18.054247
LeftLeg -1.985921 -0.000000 0.000000
LeftFoot -35.040478 22.602978 -13.041940
LeftToeBase 18.694907 -0.000000 -0.000000
RightUpLeg -15.959352 10.631377 22.487829
RightLeg -2.807971 -0.000000 0.000000
RightFoot -0.824125 -30.757860 -4.067517
RightToeBase 22.392585 -0.000000 -0.000000
289
root 19.508742 32.560467 -17.640257 -174.585709 5.084780 -178.242286
Spine -11.293638 1.433542 7.858824
Head 44.595910 7.592823 -8.499622
LeftShoulder -21.562189 -20.976717 -4.653026
LeftArm -21.488482 10.667959 -69.754283
LeftForeArm 1.738754 0.000000 7.017500
LeftHand -0.772610 -0.000000 0.416085
LeftHandThumb1 -26.253704 0.000000 33.147579
RightShoulder -13.330095 -18.085138 3.534070
RightArm 11.739495 -13.693302 66.906590
RightForeArm -27.782124 0.000000 12.908053
RightHand -1.424311 -0.000000 0.016897
RightHandThumb1 -24.326973 -0.000000 -32.862282
LeftUpLeg 14.799427 3.662033 -18.069238
LeftLeg -2.019387 -0.000000 0.000000
LeftFoot -34.995090 22.509915 -13.019296
LeftToeBase 18.683317 -0.000000 -0.000000
RightUpLeg -15.968228 10.586447 22.464471
RightLeg -2.784887 -0.000000 0.000000
RightFoot -0.794523 -30.761904 -4.186734
RightToeBase 22.265004 -0.000000 -0.000000
290
root 19.509229 32.558941 -17.635016 -174.597730 5.063885 -178.271614
Spine -11.427743 1.570015 7.839420
Head 44.505836 7.585118 -8.695282
LeftShoulder -21.631823 -20.990660 -4.725757
LeftArm -21.480846 10.665569 -69.749482
LeftForeArm 1.952946 -0.000000 7.048836
LeftHand -0.830811 -0.000000 0.261717
LeftHandThumb1 -26.253704 0.000000 33.147579
RightShoulder -13.324703 -18.200564 3.467666
RightArm 11.754630 -13.931332 67.049946
RightForeArm -27.720547 0.000000 12.781421
RightHand -1.508332 0.000000 0.236893
RightHandThumb1 -24.326973 -0.000000 -32.862282
LeftUpLeg 14.824765 3.695544 -18.080236
LeftLeg -2.052189 -0.000000 0.000000
LeftFoot -34.976628 22.461529 -12.980397
LeftToeBase 18.821730 -0.000000 -0.000000
RightUpLeg -15.981525 10.530077 22.445829
RightLeg -2.779394 -0.000000 0.000000
RightFoot -0.827756 -30.659483 -4.130921
RightToeBase 22.581463 -0.000000 -0.000000
291
root 19.509799 32.556649 -17.632021 -174.618737 5.047893 -178.295095
Spine -11.554647 1.708768 7.822788
Head 44.441232 7.614156 -8.807103
LeftShoulder -21.683491 -20.953976 -4.800930
LeftArm -21.434895 10.627817 -69.745962
LeftForeArm 2.004300 -0.000000 7.058668
LeftHand -0.855731 0.000000 0.205970
LeftHandThumb1 -26.253704 0.000000 33.147579
RightShoulder -13.304139 -18.219054 3.397830
RightArm 11.681792 -14.265027 67.198754
RightForeArm -27.819982 0.000000 12.728183
RightHand -1.848440 -0.000000 0.487974
RightHandThumb1 -24.326973 -0.000000 -32.862282
LeftUpLeg 14.868092 3.697129 -18.096523
LeftLeg -2.098880 -0.000000 0.000000
LeftFoot -34.936222 22.441624 -12.946043
LeftToeBase 18.749332 -0.000000 -0.000000
RightUpLeg -15.963861 10.450154 22.458193
RightLeg -2.796867 -0.000000 0.000000
RightFoot -0.787218 -30.640251 -4.212943
RightToeBase 22.378103 -0.000000 -0.000000
292
root 19.511893 32.554586 -17.628394 -174.615572 5.033549 -178.310070
Spine -11.721624 1.832562 7.819212
Head 44.409313 7.615367 -8.972217
LeftShoulder -21.789469 -20.896563 -4.863517
LeftArm -21.362585 10.799257 -69.818387
LeftForeArm 1.749584 -0.000000 7.027298
LeftHand -0.776775 -0.000000 0.400433
LeftHandThumb1 -26.253704 0.000000 33.147579
RightShoulder -13.275211 -18.289996 3.363929
RightArm 11.656206 -14.465287 67.301518
RightForeArm -27.811048 -0.000000 12.596395
RightHand -1.793421 -0.000000 0.750338
RightHandThumb1 -24.326973 -0.000000 -32.862282
LeftUpLeg 14.882706 3.712043 -18.100898
LeftLeg -2.133251 -0.000000 0.000000
LeftFoot -34.927140 22.415248 -12.917442
LeftToeBase 18.782796 -0.000000 -0.000000
RightUpLeg -15.980571 10.508910 22.425363
RightLeg -2.799772 -0.000000 0.000000
RightFoot -0.758021 -30.700906 -4.249503
RightToeBase 22.366114 -0.000000 -0.000000
293
root 19.513240 32.552699 -17.625917 -174.621904 5.006322 -178.328050
Spine -11.891591 1.949852 7.808780
Head 44.373751 7.607021 -9.121357
LeftShoulder -21.833092 -20.891657 -4.937335
LeftArm -21.399140 10.778808 -69.813793
LeftForeArm 1.806438 0.000000 7.064615
LeftHand -0.894552 -0.000000 0.307990
LeftHandThumb1 -26.253704 0.000000 33.147579
RightShoulder -13.237557 -18.356397 3.339732
RightArm 11.604086 -14.607458 67.408616
RightForeArm -27.723335 -0.000000 12.486075
RightHand -1.664124 0.000000 0.900901
RightHandThumb1 -24.326973 -0.000000 -32.862282
LeftUpLeg 14.913502 3.722565 -18.108627
LeftLeg -2.180254 -0.000000 0.000000
LeftFoot -34.897017 22.396966 -12.879942
LeftToeBase 18.852507 -0.000000 -0.000000
RightUpLeg -15.972219 10.499086 22.410742
RightLeg -2.833792 -0.000000 0.000000
RightFoot -0.703184 -30.710491 -4.345680
RightToeBase 22.354386 -0.000000 -0.000000
294
root 19.515034 32.550146 -17.622400 -174.603445 4.984538 -178.343309
Spine -12.075988 2.056874 7.797617
Head 44.345967 7.634978 -9.209386
LeftShoulder -21.938254 -20.895734 -4.968233
LeftArm -21.411336 10.702449 -69.798678
LeftForeArm 2.055759 -0.000000 7.058334
LeftHand -0.922776 -0.000000 0.223154
LeftHandThumb1 -26.253704 0.000000 33.147579
RightShoulder -13.211227 -18.392462 3.340314
RightArm 11.529198 -14.712381 67.502706
RightForeArm -27.716863 0.000000 12.405940
RightHand -1.611108 -0.000000 1.088263
RightHandThumb1 -24.326973 -0.000000 -32.862282
LeftUpLeg 14.911120 3.722894 -18.119917
LeftLeg -2.212965 -0.000000 0.000000
LeftFoot -34.876721 22.406371 -12.860588
LeftToeBase 18.673718 -0.000000 -0.000000
RightUpLeg -15.990430 10.521253 22.388964
RightLeg -2.864013 -0.000000 0.000000
RightFoot -0.658292 -30.771769 -4.367999
RightToeBase 22.193598 -0.000000 -0.000000
295
root 19.516923 32.548051 -17.620531 -174.592396 4.952263 -178.354895
Spine -12.271841 2.122307 7.805237
Head 44.314281 7.676373 -9.348795
LeftShoulder -22.056862 -20.776930 -5.044796
LeftArm -21.316443 10.657029 -69.801102
LeftForeArm 2.078452 -0.000000 7.049406
LeftHand -0.848918 -0.000000 0.378127
LeftHandThumb1 -26.253704 0.000000 33.147579
RightShoulder -13.164329 -18.341522 3.332635
RightArm 11.370107 -14.909219 67.589444
RightForeArm -27.657591 -0.000000 12.386048
RightHand -1.694722 -0.000000 1.249167
RightHandThumb1 -24.326973 -0.000000 -32.862282
LeftUpLeg 14.932659 3.712929 -18.124097
LeftLeg -2.266095 -0.000000 0.000000
LeftFoot -34.878444 22.399853 -12.860316
LeftToeBase 18.731605 -0.000000 -0.000000
RightUpLeg -15.991479 10.509513 22.381208
RightLeg -2.908775 -0.000000 0.000000
RightFoot -0.600477 -30.782128 -4.477722
RightToeBase 22.392193 -0.000000 -0.000000
296
root 19.518797 32.545914 -17.618978 -174.578876 4.914094 -178.364503
Spine -12.468867 2.193022 7.816883
Head 44.266875 7.705456 -9.488382
LeftShoulder -22.090535 -20.822251 -5.081635
LeftArm -21.465875 10.408517 -69.730175
LeftForeArm 2.432807 -0.000000 7.112057
LeftHand -0.945819 -0.000000 0.227548
LeftHandThumb1 -26.253704 0.000000 33.147579
RightShoulder -13.201150 -18.372830 3.352168
RightArm 11.391449 -15.145329 67.615919
RightForeArm -27.551746 0.000000 12.261084
RightHand -1.648486 -0.000000 1.143295
RightHandThumb1 -24.326973 -0.000000 -32.862282
LeftUpLeg 14.951711 3.710957 -18.122010
LeftLeg -2.310031 -0.000000 0.000000
LeftFoot -34.882811 22.341580 -12.878714
LeftToeBase 18.818849 -0.000000 -0.000000
RightUpLeg -15.998815 10.489084 22.376542
RightLeg -2.945316 -0.000000 0.000000
RightFoot -0.548032 -30.807495 -4.580839
RightToeBase 22.229367 -0.000000 -0.000000
297
root 19.520524 32.543242 -17.616952 -174.545644 4.874535 -178.373941
Spine -12.687410 2.272315 7.823338
Head 44.245286 7.749147 -9.572341
LeftShoulder -22.142674 -20.821162 -5.135790
LeftArm -21.581247 10.815313 -69.888645
LeftForeArm 1.994165 0.000000 7.158412
LeftHand -0.966520 0.000000 0.382806
LeftHandThumb1 -26.253704 0.000000 33.147579
RightShoulder -13.247887 -18.402355 3.393643
RightArm 11.383467 -15.231753 67.659796
RightForeArm -27.403493 0.000000 12.176038
RightHand -1.676585 -0.000000 1.409152
RightHandThumb1 -24.326973 -0.000000 -32.862282
LeftUpLeg 14.963115 3.698920 -18.124138
LeftLeg -2.379973 -0.000000 0.000000
LeftFoot -34.870025 22.330756 -12.884334
LeftToeBase 18.801578 -0.000000 -0.000000
RightUpLeg -16.024072 10.483283 22.368273
RightLeg -2.988624 -0.000000 0.000000
RightFoot -0.508085 -30.841556 -4.622271
RightToeBase 22.182080 -0.000000 -0.000000
298
root 19.523287 32.540753 -17.616007 -174.518644 4.840285 -178.354673
Spine -12.901507 2.332462 7.857942
Head 44.214211 7.771854 -9.663409
LeftShoulder -22.218217 -20.720774 -5.173397
LeftArm -21.549493 10.667546 -69.891008
LeftForeArm 2.274843 0.000000 7.109120
LeftHand -1.003771 -0.000000 0.272249
LeftHandThumb1 -26.253704 0.000000 33.147579
RightShoulder -13.211436 -18.413931 3.421486
RightArm 11.266322 -15.322338 67.724077
RightForeArm -27.319705 -0.000000 12.223163
RightHand -1.718798 -0.000000 1.443298
RightHandThumb1 -24.326973 -0.000000 -32.862282
LeftUpLeg 14.975076 3.674007 -18.100876
LeftLeg -2.430757 -0.000000 0.000000
LeftFoot -34.892014 22.338244 -12.871270
LeftToeBase 18.846752 -0.000000 -0.000000
RightUpLeg -16.041079 10.490949 22.385328
RightLeg -3.022524 -0.000000 0.000000
RightFoot -0.455127 -30.880480 -4.669389
RightToeBase 22.101844 -0.000000 -0.000000
